<svg id="图层_1" data-name="图层 1" xmlns="http://www.w3.org/2000/svg" viewBox="0 0 419.23 850.39"><defs><style>.cls-1{fill:#004ea1;}.cls-2{fill:#5084c4;}</style></defs><path class="cls-1" d="M595.92,258.76,215.58,0V128.22c1.43,20.55,9.39,57.93,46.35,82.5L521.3,382.35l39.32,32.86,30.9,25.84c23.17,19.31,35.1,37.19,40.09,58.36h0c1.62-5.64,2.74-39.71,2.74-39.71V379.45c1-55.11,3.86-85.47-38.62-120.77" transform="translate(-215.58)"/><path class="cls-2" d="M625.58,520.69C624.27,491.14,613.22,470.75,586,448l-21.13-17.53L552.2,440.86l-39.28,32.79L255.71,644a106.56,106.56,0,0,0-40.13,77.78V850.39L587.42,597.47c28.43-23.64,36.54-45,38.62-73.11Z" transform="translate(-215.58)"/></svg>