<svg xmlns="http://www.w3.org/2000/svg" width="1920" height="970" viewBox="0 0 1920 970">
  <defs>
    <style>
      .cls11-1 {
        fill: #fff;
        fill-rule: evenodd;
      }
    </style>
  </defs>
  <path id="形状_17" data-name="形状 17" class="cls11-1" d="M0,3879v970H1920V3879H0Zm776.936,488.21c1.611-96.85,82.69-175.23,182.373-175.85h2.349l2.872,0.04c68.8,1.44,128.38,39.93,158.56,95.73l-3.1-.82a107.13,107.13,0,0,0-26.02-3.2l-3.06.04a106.853,106.853,0,0,0-37.31,7.81l-1.6-1.74a124.857,124.857,0,0,0-91.486-39.52l-2.105.02c-67.231,1.1-121.576,54.7-121.576,120.43l0.031,2.7a118.625,118.625,0,0,0,29.825,75.78l0.145,0.15,0.084,0.1c2.076,2.31,31.266,34.83,59.861,66.69l3.007,3.36c11.007,12.26,21.781,24.26,30.728,34.23l74.776-83.3,2.11,1.36a106.424,106.424,0,0,0,56.57,16.12l2.67-.04,2.66-.1-0.31.35L960.514,4641.83l-22.555-25.13-2.986-3.33c-97.683-108.82-111.2-123.89-113.149-126.07l-0.312-.34-1.986-2.28a175.942,175.942,0,0,1-42.615-114.53Zm183.579,303.11c-91.159,0-165.06-10.15-165.06-22.66,0-10.09,48.076-18.64,114.506-21.57,2.908-.12,13.771,5.96,24.685,12.6l2.972,1.82c11.845,7.29,22.9,14.62,22.9,14.62s45.105-29.29,51.855-28.98c65.76,2.99,113.21,11.49,113.21,21.51C1125.58,4660.17,1051.68,4670.32,960.515,4670.32Zm215.505-283.14c-1,43.46-37.49,78.39-82.36,78.39l-1.89-.02c-44.63-.98-80.5-36.51-80.5-80.21,0-44.31,36.88-80.23,82.39-80.23l1.99,0.02c35.71,0.83,65.78,23.79,76.34,55.33l0.05,0.21,0.05,0.22,0.08,0.86c0.35,6.04-5.13,12.4-14.68,18.23l-0.14-1.92c-3.5-39.62-34.74-70.76-66.02-71.76,26.65,1.31,50.81,36.22,50.81,79.09l-0.02,1.07-0.02,1.06-2.59,1.01a207.466,207.466,0,0,1-43.59,10.77l-3.63.49c-16.89,2.13-32.68,2.31-45.75.86l2.9,0.58a238.708,238.708,0,0,0,43.93,3.87l3.53-.03a230.677,230.677,0,0,0,44.22-4.61l-0.29,1.98c-5.47,35.51-27.45,62.1-51.05,62.1l1.55-.03c30.38-.97,60.74-30.41,65.65-68.41l1.46-.53c10.91-4.08,17.45-9.08,17.5-14.24v0l0.08,1.97,0.03,2.04Z" transform="translate(0 -3879)"/>
</svg>
